<svg width="48" height="48" viewBox="0 0 48 48" fill="none" xmlns="http://www.w3.org/2000/svg"><g clip-path="url(#clip0_9480_223286)"><path d="M24 48c13.255 0 24-10.745 24-24S37.255 0 24 0 0 10.745 0 24s10.745 24 24 24z" fill="#3E5FFF"/><path d="M24 48c13.255 0 24-10.745 24-24S37.255 0 24 0 0 10.745 0 24s10.745 24 24 24z" fill="url(#paint0_linear_9480_223286)"/><g filter="url(#filter0_di_9480_223286)"><path d="M10.236 33.987C8.2 31.163 7 27.758 7 24A16.952 16.952 0 0124 7c9.389 0 17 7.537 17 17 0 3.758-1.2 7.163-3.236 9.987l-8.132-13.174-.85 1.381.85 3.719L24 16.244l-3.4 5.843.743 3.719-2.975-4.993-8.132 13.173v.001z" fill="url(#paint1_linear_9480_223286)"/></g></g><defs><linearGradient id="paint0_linear_9480_223286" x1="24" y1="0" x2="24" y2="48" gradientUnits="userSpaceOnUse"><stop stop-color="#fff" stop-opacity=".096"/><stop offset="1" stop-color="#fff" stop-opacity="0"/></linearGradient><linearGradient id="paint1_linear_9480_223286" x1="24" y1="33.987" x2="24" y2="7" gradientUnits="userSpaceOnUse"><stop stop-color="#fff" stop-opacity=".7"/><stop offset="1" stop-color="#fff"/></linearGradient><clipPath id="clip0_9480_223286"><path fill="#fff" d="M0 0h48v48H0z"/></clipPath><filter id="filter0_di_9480_223286" x="3" y="7" width="42" height="34.987" filterUnits="userSpaceOnUse" color-interpolation-filters="sRGB"><feFlood flood-opacity="0" result="BackgroundImageFix"/><feColorMatrix in="SourceAlpha" values="0 0 0 0 0 0 0 0 0 0 0 0 0 0 0 0 0 0 127 0" result="hardAlpha"/><feOffset dy="4"/><feGaussianBlur stdDeviation="2"/><feColorMatrix values="0 0 0 0 0 0 0 0 0 0 0 0 0 0 0 0 0 0 0.1 0"/><feBlend in2="BackgroundImageFix" result="effect1_dropShadow_9480_223286"/><feBlend in="SourceGraphic" in2="effect1_dropShadow_9480_223286" result="shape"/><feColorMatrix in="SourceAlpha" values="0 0 0 0 0 0 0 0 0 0 0 0 0 0 0 0 0 0 127 0" result="hardAlpha"/><feOffset/><feGaussianBlur stdDeviation=".5"/><feComposite in2="hardAlpha" operator="arithmetic" k2="-1" k3="1"/><feColorMatrix values="0 0 0 0 1 0 0 0 0 1 0 0 0 0 1 0 0 0 0.25 0"/><feBlend in2="shape" result="effect2_innerShadow_9480_223286"/></filter></defs></svg>